<mxfile host="app.diagrams.net" modified="2023-12-01T07:40:10.046Z" agent="Mozilla/5.0 (Macintosh; Intel Mac OS X 10_15_7) AppleWebKit/537.36 (KHTML, like Gecko) Chrome/119.0.0.0 Safari/537.36" etag="vrCp3Hnm5FMmyTCj97GB" version="22.1.5" type="github">
  <diagram id="C5RBs43oDa-KdzZeNtuy" name="Page-1">
    <mxGraphModel dx="2860" dy="1566" grid="0" gridSize="10" guides="1" tooltips="1" connect="1" arrows="1" fold="1" page="0" pageScale="1" pageWidth="827" pageHeight="1169" math="0" shadow="0">
      <root>
        <mxCell id="WIyWlLk6GJQsqaUBKTNV-0" />
        <mxCell id="WIyWlLk6GJQsqaUBKTNV-1" parent="WIyWlLk6GJQsqaUBKTNV-0" />
        <mxCell id="DmIyKr2_u7H9WRoE40zn-2" value="" style="edgeStyle=orthogonalEdgeStyle;rounded=0;orthogonalLoop=1;jettySize=auto;html=1;fontSize=16;fillColor=#fff2cc;strokeColor=#d6b656;" edge="1" parent="WIyWlLk6GJQsqaUBKTNV-1" source="DmIyKr2_u7H9WRoE40zn-0" target="DmIyKr2_u7H9WRoE40zn-1">
          <mxGeometry relative="1" as="geometry" />
        </mxCell>
        <mxCell id="DmIyKr2_u7H9WRoE40zn-0" value="Start" style="ellipse;whiteSpace=wrap;html=1;fontSize=16;fillColor=#fff2cc;strokeColor=#d6b656;" vertex="1" parent="WIyWlLk6GJQsqaUBKTNV-1">
          <mxGeometry x="-533" y="97" width="120" height="80" as="geometry" />
        </mxCell>
        <mxCell id="DmIyKr2_u7H9WRoE40zn-4" value="" style="edgeStyle=orthogonalEdgeStyle;rounded=0;orthogonalLoop=1;jettySize=auto;html=1;fontSize=16;fillColor=#fff2cc;strokeColor=#d6b656;" edge="1" parent="WIyWlLk6GJQsqaUBKTNV-1" source="DmIyKr2_u7H9WRoE40zn-1" target="DmIyKr2_u7H9WRoE40zn-3">
          <mxGeometry relative="1" as="geometry" />
        </mxCell>
        <mxCell id="DmIyKr2_u7H9WRoE40zn-1" value="Read JSO code" style="whiteSpace=wrap;html=1;fontSize=16;fillColor=#fff2cc;strokeColor=#d6b656;" vertex="1" parent="WIyWlLk6GJQsqaUBKTNV-1">
          <mxGeometry x="-333" y="107" width="120" height="60" as="geometry" />
        </mxCell>
        <mxCell id="DmIyKr2_u7H9WRoE40zn-6" value="" style="edgeStyle=orthogonalEdgeStyle;rounded=0;orthogonalLoop=1;jettySize=auto;html=1;fontSize=16;fillColor=#fff2cc;strokeColor=#d6b656;" edge="1" parent="WIyWlLk6GJQsqaUBKTNV-1" source="DmIyKr2_u7H9WRoE40zn-3" target="DmIyKr2_u7H9WRoE40zn-5">
          <mxGeometry relative="1" as="geometry" />
        </mxCell>
        <mxCell id="DmIyKr2_u7H9WRoE40zn-3" value="Read cursor position" style="whiteSpace=wrap;html=1;fontSize=16;fillColor=#fff2cc;strokeColor=#d6b656;" vertex="1" parent="WIyWlLk6GJQsqaUBKTNV-1">
          <mxGeometry x="-133" y="107" width="120" height="60" as="geometry" />
        </mxCell>
        <mxCell id="DmIyKr2_u7H9WRoE40zn-8" value="" style="edgeStyle=orthogonalEdgeStyle;rounded=0;orthogonalLoop=1;jettySize=auto;html=1;fontSize=16;fillColor=#fff2cc;strokeColor=#d6b656;" edge="1" parent="WIyWlLk6GJQsqaUBKTNV-1" source="DmIyKr2_u7H9WRoE40zn-5" target="DmIyKr2_u7H9WRoE40zn-7">
          <mxGeometry relative="1" as="geometry" />
        </mxCell>
        <mxCell id="DmIyKr2_u7H9WRoE40zn-5" value="parse code to AST&lt;br style=&quot;font-size: 16px;&quot;&gt;using acorn" style="whiteSpace=wrap;html=1;fontSize=16;fillColor=#fff2cc;strokeColor=#d6b656;" vertex="1" parent="WIyWlLk6GJQsqaUBKTNV-1">
          <mxGeometry x="67" y="107" width="162" height="60" as="geometry" />
        </mxCell>
        <mxCell id="DmIyKr2_u7H9WRoE40zn-10" value="" style="edgeStyle=orthogonalEdgeStyle;rounded=0;orthogonalLoop=1;jettySize=auto;html=1;fillColor=#fff2cc;strokeColor=#d6b656;" edge="1" parent="WIyWlLk6GJQsqaUBKTNV-1" source="DmIyKr2_u7H9WRoE40zn-7" target="DmIyKr2_u7H9WRoE40zn-9">
          <mxGeometry relative="1" as="geometry" />
        </mxCell>
        <mxCell id="DmIyKr2_u7H9WRoE40zn-7" value="walk AST" style="whiteSpace=wrap;html=1;fontSize=16;fillColor=#fff2cc;strokeColor=#d6b656;" vertex="1" parent="WIyWlLk6GJQsqaUBKTNV-1">
          <mxGeometry x="309" y="107" width="162" height="60" as="geometry" />
        </mxCell>
        <mxCell id="DmIyKr2_u7H9WRoE40zn-13" value="" style="edgeStyle=orthogonalEdgeStyle;rounded=0;orthogonalLoop=1;jettySize=auto;html=1;fillColor=#fff2cc;strokeColor=#d6b656;" edge="1" parent="WIyWlLk6GJQsqaUBKTNV-1" source="DmIyKr2_u7H9WRoE40zn-9" target="DmIyKr2_u7H9WRoE40zn-12">
          <mxGeometry relative="1" as="geometry" />
        </mxCell>
        <mxCell id="DmIyKr2_u7H9WRoE40zn-16" value="True" style="edgeLabel;html=1;align=center;verticalAlign=middle;resizable=0;points=[];" vertex="1" connectable="0" parent="DmIyKr2_u7H9WRoE40zn-13">
          <mxGeometry x="-0.2787" y="1" relative="1" as="geometry">
            <mxPoint as="offset" />
          </mxGeometry>
        </mxCell>
        <mxCell id="DmIyKr2_u7H9WRoE40zn-9" value="node.start &amp;lt; position &amp;amp;&amp;amp; position &amp;lt; node.end" style="rhombus;whiteSpace=wrap;html=1;fontSize=16;fillColor=#fff2cc;strokeColor=#d6b656;" vertex="1" parent="WIyWlLk6GJQsqaUBKTNV-1">
          <mxGeometry x="559" y="97" width="209" height="80" as="geometry" />
        </mxCell>
        <mxCell id="DmIyKr2_u7H9WRoE40zn-11" value="Mouse over Current Token" style="text;html=1;align=center;verticalAlign=middle;whiteSpace=wrap;rounded=0;dashed=1;" vertex="1" parent="WIyWlLk6GJQsqaUBKTNV-1">
          <mxGeometry x="756" y="97" width="186" height="30" as="geometry" />
        </mxCell>
        <mxCell id="DmIyKr2_u7H9WRoE40zn-15" value="" style="edgeStyle=orthogonalEdgeStyle;rounded=0;orthogonalLoop=1;jettySize=auto;html=1;fillColor=#fff2cc;strokeColor=#d6b656;" edge="1" parent="WIyWlLk6GJQsqaUBKTNV-1" source="DmIyKr2_u7H9WRoE40zn-12" target="DmIyKr2_u7H9WRoE40zn-14">
          <mxGeometry relative="1" as="geometry" />
        </mxCell>
        <mxCell id="DmIyKr2_u7H9WRoE40zn-12" value="escodegen &lt;br&gt;current node" style="whiteSpace=wrap;html=1;fontSize=16;fillColor=#fff2cc;strokeColor=#d6b656;" vertex="1" parent="WIyWlLk6GJQsqaUBKTNV-1">
          <mxGeometry x="955" y="107" width="177" height="60" as="geometry" />
        </mxCell>
        <mxCell id="DmIyKr2_u7H9WRoE40zn-14" value="End" style="ellipse;whiteSpace=wrap;html=1;fontSize=16;fillColor=#fff2cc;strokeColor=#d6b656;" vertex="1" parent="WIyWlLk6GJQsqaUBKTNV-1">
          <mxGeometry x="1192" y="97" width="125.5" height="80" as="geometry" />
        </mxCell>
        <mxCell id="DmIyKr2_u7H9WRoE40zn-17" value="escodegen can parse &lt;br style=&quot;font-size: 16px;&quot;&gt;SpiderMonkey AST to &lt;br style=&quot;font-size: 16px;&quot;&gt;ECMAScript Code" style="ellipse;shape=cloud;whiteSpace=wrap;html=1;fontSize=16;" vertex="1" parent="WIyWlLk6GJQsqaUBKTNV-1">
          <mxGeometry x="925.5" y="-58" width="236" height="136" as="geometry" />
        </mxCell>
        <mxCell id="DmIyKr2_u7H9WRoE40zn-18" value="acorn can parse &lt;br style=&quot;font-size: 16px;&quot;&gt;ECMAScript Code&lt;br&gt;to SpiderMonkey AST" style="ellipse;shape=cloud;whiteSpace=wrap;html=1;fontSize=16;" vertex="1" parent="WIyWlLk6GJQsqaUBKTNV-1">
          <mxGeometry x="30" y="-50" width="236" height="136" as="geometry" />
        </mxCell>
      </root>
    </mxGraphModel>
  </diagram>
</mxfile>
